<svg width="766" height="216" viewBox="0 0 766 216" fill="none" xmlns="http://www.w3.org/2000/svg">
<path d="M112 94.6863C112 100.935 117.065 106 123.314 106C126.314 106 129.192 104.808 131.314 102.686L220.686 13.3137C222.808 11.192 225.686 10 228.686 10C234.935 10 240 15.0653 240 21.3137V94.6863C240 100.935 245.065 106 251.314 106C254.314 106 257.192 104.808 259.314 102.686L348.686 13.3137C350.808 11.192 353.686 10 356.686 10C362.935 10 368 15.0653 368 21.3137V49.7157C368 55.0201 365.893 60.1071 362.142 63.8579L227.314 198.686C225.192 200.808 222.314 202 219.314 202C213.065 202 208 196.935 208 190.686V142C208 130.954 199.046 122 188 122H184.284C178.98 122 173.893 124.107 170.142 127.858L99.3137 198.686C97.192 200.808 94.3143 202 91.3137 202C85.0653 202 80 196.935 80 190.686V142C80 130.954 71.0457 122 60 122H11.3137C5.06533 122 0 116.935 0 110.686C0 107.686 1.19198 104.808 3.31371 102.686L92.6863 13.3137C94.808 11.192 97.6857 10 100.686 10C106.935 10 112 15.0653 112 21.3137V94.6863Z" fill="#CDF211"/>
<path d="M436.984 86L417.462 25.284H430.878L445.154 71.982H439.908L453.84 25.284H464.418L478.35 71.982H473.19L487.38 25.284H500.71L481.188 86H470.61L456.592 39.302H461.58L447.562 86H436.984ZM538.976 86V25.284H552.478V86H538.976ZM620.071 60.974V50.998H632.885C635.58 50.998 637.644 50.31 639.077 48.934C640.568 47.558 641.313 45.6947 641.313 43.344C641.313 41.1653 640.597 39.3593 639.163 37.926C637.73 36.4927 635.666 35.776 632.971 35.776H620.071V25.284H634.519C638.533 25.284 642.059 26.058 645.097 27.606C648.136 29.0967 650.515 31.1893 652.235 33.884C653.955 36.5787 654.815 39.6747 654.815 43.172C654.815 46.7267 653.955 49.8513 652.235 52.546C650.515 55.1833 648.107 57.2473 645.011 58.738C641.915 60.2287 638.275 60.974 634.089 60.974H620.071ZM609.751 86V25.284H623.253V86H609.751ZM642.775 86L623.855 59.856L636.239 56.502L658.771 86H642.775ZM695.637 86V25.284H709.139V86H695.637ZM705.957 86V74.304H739.239V86H705.957ZM705.957 60.63V49.364H736.229V60.63H705.957ZM705.957 36.894V25.284H738.809V36.894H705.957ZM450.658 194.946C446.129 194.946 441.915 194.172 438.016 192.624C434.175 191.019 430.792 188.783 427.868 185.916C425.001 183.049 422.765 179.724 421.16 175.94C419.555 172.099 418.752 167.971 418.752 163.556C418.752 159.141 419.555 155.042 421.16 151.258C422.765 147.417 425.001 144.091 427.868 141.282C430.735 138.473 434.089 136.294 437.93 134.746C441.829 133.141 446.043 132.338 450.572 132.338C455.388 132.338 459.659 133.112 463.386 134.66C467.17 136.208 470.467 138.329 473.276 141.024L464.246 150.14C462.641 148.42 460.691 147.073 458.398 146.098C456.162 145.123 453.553 144.636 450.572 144.636C447.935 144.636 445.498 145.095 443.262 146.012C441.083 146.872 439.191 148.133 437.586 149.796C436.038 151.459 434.805 153.465 433.888 155.816C433.028 158.167 432.598 160.747 432.598 163.556C432.598 166.423 433.028 169.031 433.888 171.382C434.805 173.733 436.038 175.739 437.586 177.402C439.191 179.065 441.083 180.355 443.262 181.272C445.498 182.189 447.935 182.648 450.572 182.648C453.668 182.648 456.363 182.161 458.656 181.186C460.949 180.211 462.927 178.864 464.59 177.144L473.706 186.26C470.782 188.955 467.428 191.076 463.644 192.624C459.917 194.172 455.589 194.946 450.658 194.946ZM538.647 195.032C534.061 195.032 529.818 194.229 525.919 192.624C522.078 191.019 518.695 188.783 515.771 185.916C512.847 183.049 510.583 179.724 508.977 175.94C507.372 172.099 506.569 167.971 506.569 163.556C506.569 159.084 507.372 154.956 508.977 151.172C510.583 147.388 512.819 144.091 515.685 141.282C518.552 138.415 521.906 136.208 525.747 134.66C529.646 133.055 533.889 132.252 538.475 132.252C543.005 132.252 547.19 133.055 551.031 134.66C554.93 136.208 558.313 138.415 561.179 141.282C564.103 144.091 566.368 147.417 567.973 151.258C569.579 155.042 570.381 159.17 570.381 163.642C570.381 168.057 569.579 172.185 567.973 176.026C566.368 179.81 564.132 183.135 561.265 186.002C558.399 188.811 555.016 191.019 551.117 192.624C547.276 194.229 543.119 195.032 538.647 195.032ZM538.475 182.734C542.087 182.734 545.241 181.931 547.935 180.326C550.687 178.721 552.809 176.485 554.299 173.618C555.79 170.694 556.535 167.34 556.535 163.556C556.535 160.689 556.105 158.109 555.245 155.816C554.385 153.465 553.153 151.459 551.547 149.796C549.942 148.076 548.021 146.786 545.785 145.926C543.607 145.009 541.17 144.55 538.475 144.55C534.863 144.55 531.681 145.353 528.929 146.958C526.235 148.506 524.142 150.713 522.651 153.58C521.161 156.389 520.415 159.715 520.415 163.556C520.415 166.423 520.845 169.031 521.705 171.382C522.565 173.733 523.769 175.768 525.317 177.488C526.923 179.151 528.843 180.441 531.079 181.358C533.315 182.275 535.781 182.734 538.475 182.734ZM620.233 168.974V158.998H633.047C635.741 158.998 637.805 158.31 639.239 156.934C640.729 155.558 641.475 153.695 641.475 151.344C641.475 149.165 640.758 147.359 639.325 145.926C637.891 144.493 635.827 143.776 633.133 143.776H620.233V133.284H634.681C638.694 133.284 642.22 134.058 645.259 135.606C648.297 137.097 650.677 139.189 652.397 141.884C654.117 144.579 654.977 147.675 654.977 151.172C654.977 154.727 654.117 157.851 652.397 160.546C650.677 163.183 648.269 165.247 645.173 166.738C642.077 168.229 638.436 168.974 634.251 168.974H620.233ZM609.913 194V133.284H623.415V194H609.913ZM642.937 194L624.017 167.856L636.401 164.502L658.933 194H642.937ZM695.798 194V133.284H709.3V194H695.798ZM706.118 194V182.304H739.4V194H706.118ZM706.118 168.63V157.364H736.39V168.63H706.118ZM706.118 144.894V133.284H738.97V144.894H706.118Z" fill="#CDF211"/>
</svg>
