<svg width="368" height="192" viewBox="0 0 368 192" fill="none" xmlns="http://www.w3.org/2000/svg">
<path d="M112 84.6863C112 90.9347 117.065 96 123.314 96C126.314 96 129.192 94.808 131.314 92.6863L220.686 3.31371C222.808 1.19197 225.686 0 228.686 0C234.935 0 240 5.06532 240 11.3137V84.6863C240 90.9347 245.065 96 251.314 96C254.314 96 257.192 94.808 259.314 92.6863L348.686 3.31371C350.808 1.19197 353.686 0 356.686 0C362.935 0 368 5.06532 368 11.3137V39.7157C368 45.0201 365.893 50.1071 362.142 53.8579L227.314 188.686C225.192 190.808 222.314 192 219.314 192C213.065 192 208 186.935 208 180.686V132C208 120.954 199.046 112 188 112H184.284C178.98 112 173.893 114.107 170.142 117.858L99.3137 188.686C97.192 190.808 94.3143 192 91.3137 192C85.0653 192 80 186.935 80 180.686V132C80 120.954 71.0457 112 60 112H11.3137C5.06533 112 0 106.935 0 100.686C0 97.6857 1.19198 94.808 3.31371 92.6863L92.6863 3.31371C94.808 1.19197 97.6857 0 100.686 0C106.935 0 112 5.06532 112 11.3137V84.6863Z" fill="#CDF211"/>
</svg>
