<svg width="2614" height="303" viewBox="0 0 2614 303" fill="none" xmlns="http://www.w3.org/2000/svg">
<path d="M157.957 135.547C157.957 144.357 165.099 151.5 173.91 151.5C178.143 151.5 182.203 149.817 185.195 146.823L311.24 20.6771C314.232 17.6825 318.292 16 322.525 16C331.336 16 338.478 23.1426 338.478 31.9534V135.547C338.478 144.357 345.621 151.5 354.432 151.5C358.665 151.5 362.725 149.817 365.717 146.823L491.761 20.6771C494.754 17.6825 498.813 16 503.047 16C511.857 16 519 23.1426 519 31.9534V75.4704C519 80.772 516.895 85.8566 513.148 89.6069L320.586 282.323C317.594 285.317 313.535 287 309.301 287C300.49 287 293.348 279.857 293.348 271.047V194.083C293.348 183.038 284.394 174.083 273.348 174.083H256.506C251.199 174.083 246.11 176.193 242.359 179.947L140.065 282.323C137.073 285.317 133.013 287 128.779 287C119.969 287 112.826 279.857 112.826 271.047V194.083C112.826 183.038 103.872 174.083 92.8261 174.083H15.9715C7.15066 174.083 0 166.933 0 158.112C0 153.878 1.68095 149.818 4.67341 146.823L130.718 20.6771C133.71 17.6825 137.77 16 142.003 16C150.814 16 157.957 23.1426 157.957 31.9534V135.547Z" fill="#CDF211"/>
<path d="M805.56 240L751.08 70.56H788.52L828.36 200.88H813.72L852.6 70.56H882.12L921 200.88H906.6L946.2 70.56H983.4L928.92 240H899.4L860.28 109.68H874.2L835.08 240H805.56ZM1090.19 240V70.56H1127.87V240H1090.19ZM1275.7 170.16V142.32H1311.46C1318.98 142.32 1324.74 140.4 1328.74 136.56C1332.9 132.72 1334.98 127.52 1334.98 120.96C1334.98 114.88 1332.98 109.84 1328.98 105.84C1324.98 101.84 1319.22 99.84 1311.7 99.84H1275.7V70.56H1316.02C1327.22 70.56 1337.06 72.72 1345.54 77.04C1354.02 81.2 1360.66 87.04 1365.46 94.56C1370.26 102.08 1372.66 110.72 1372.66 120.48C1372.66 130.4 1370.26 139.12 1365.46 146.64C1360.66 154 1353.94 159.76 1345.3 163.92C1336.66 168.08 1326.5 170.16 1314.82 170.16H1275.7ZM1246.9 240V70.56H1284.58V240H1246.9ZM1339.06 240L1286.26 167.04L1320.82 157.68L1383.7 240H1339.06ZM1486.58 240V70.56H1524.26V240H1486.58ZM1515.38 240V207.36H1608.26V240H1515.38ZM1515.38 169.2V137.76H1599.86V169.2H1515.38ZM1515.38 102.96V70.56H1607.06V102.96H1515.38ZM1797.99 242.64C1785.35 242.64 1773.59 240.48 1762.71 236.16C1751.99 231.68 1742.55 225.44 1734.39 217.44C1726.39 209.44 1720.15 200.16 1715.67 189.6C1711.19 178.88 1708.95 167.36 1708.95 155.04C1708.95 142.72 1711.19 131.28 1715.67 120.72C1720.15 110 1726.39 100.72 1734.39 92.88C1742.39 85.04 1751.75 78.96 1762.47 74.64C1773.35 70.16 1785.11 67.92 1797.75 67.92C1811.19 67.92 1823.11 70.08 1833.51 74.4C1844.07 78.72 1853.27 84.64 1861.11 92.16L1835.91 117.6C1831.43 112.8 1825.99 109.04 1819.59 106.32C1813.35 103.6 1806.07 102.24 1797.75 102.24C1790.39 102.24 1783.59 103.52 1777.35 106.08C1771.27 108.48 1765.99 112 1761.51 116.64C1757.19 121.28 1753.75 126.88 1751.19 133.44C1748.79 140 1747.59 147.2 1747.59 155.04C1747.59 163.04 1748.79 170.32 1751.19 176.88C1753.75 183.44 1757.19 189.04 1761.51 193.68C1765.99 198.32 1771.27 201.92 1777.35 204.48C1783.59 207.04 1790.39 208.32 1797.75 208.32C1806.39 208.32 1813.91 206.96 1820.31 204.24C1826.71 201.52 1832.23 197.76 1836.87 192.96L1862.31 218.4C1854.15 225.92 1844.79 231.84 1834.23 236.16C1823.83 240.48 1811.75 242.64 1797.99 242.64ZM2043.54 242.88C2030.74 242.88 2018.9 240.64 2008.02 236.16C1997.3 231.68 1987.86 225.44 1979.7 217.44C1971.54 209.44 1965.22 200.16 1960.74 189.6C1956.26 178.88 1954.02 167.36 1954.02 155.04C1954.02 142.56 1956.26 131.04 1960.74 120.48C1965.22 109.92 1971.46 100.72 1979.46 92.88C1987.46 84.88 1996.82 78.72 2007.54 74.4C2018.42 69.92 2030.26 67.68 2043.06 67.68C2055.7 67.68 2067.38 69.92 2078.1 74.4C2088.98 78.72 2098.42 84.88 2106.42 92.88C2114.58 100.72 2120.9 110 2125.38 120.72C2129.86 131.28 2132.1 142.8 2132.1 155.28C2132.1 167.6 2129.86 179.12 2125.38 189.84C2120.9 200.4 2114.66 209.68 2106.66 217.68C2098.66 225.52 2089.22 231.68 2078.34 236.16C2067.62 240.64 2056.02 242.88 2043.54 242.88ZM2043.06 208.56C2053.14 208.56 2061.94 206.32 2069.46 201.84C2077.14 197.36 2083.06 191.12 2087.22 183.12C2091.38 174.96 2093.46 165.6 2093.46 155.04C2093.46 147.04 2092.26 139.84 2089.86 133.44C2087.46 126.88 2084.02 121.28 2079.54 116.64C2075.06 111.84 2069.7 108.24 2063.46 105.84C2057.38 103.28 2050.58 102 2043.06 102C2032.98 102 2024.1 104.24 2016.42 108.72C2008.9 113.04 2003.06 119.2 1998.9 127.2C1994.74 135.04 1992.66 144.32 1992.66 155.04C1992.66 163.04 1993.86 170.32 1996.26 176.88C1998.66 183.44 2002.02 189.12 2006.34 193.92C2010.82 198.56 2016.18 202.16 2022.42 204.72C2028.66 207.28 2035.54 208.56 2043.06 208.56ZM2271.22 170.16V142.32H2306.98C2314.5 142.32 2320.26 140.4 2324.26 136.56C2328.42 132.72 2330.5 127.52 2330.5 120.96C2330.5 114.88 2328.5 109.84 2324.5 105.84C2320.5 101.84 2314.74 99.84 2307.22 99.84H2271.22V70.56H2311.54C2322.74 70.56 2332.58 72.72 2341.06 77.04C2349.54 81.2 2356.18 87.04 2360.98 94.56C2365.78 102.08 2368.18 110.72 2368.18 120.48C2368.18 130.4 2365.78 139.12 2360.98 146.64C2356.18 154 2349.46 159.76 2340.82 163.92C2332.18 168.08 2322.02 170.16 2310.34 170.16H2271.22ZM2242.42 240V70.56H2280.1V240H2242.42ZM2334.58 240L2281.78 167.04L2316.34 157.68L2379.22 240H2334.58ZM2482.1 240V70.56H2519.78V240H2482.1ZM2510.9 240V207.36H2603.78V240H2510.9ZM2510.9 169.2V137.76H2595.38V169.2H2510.9ZM2510.9 102.96V70.56H2602.58V102.96H2510.9Z" fill="#CDF211"/>
</svg>
